<?xml version="1.0" standalone="no"?>
<!DOCTYPE svg PUBLIC "-//W3C//DTD SVG 20010904//EN"
 "http://www.w3.org/TR/2001/REC-SVG-20010904/DTD/svg10.dtd">
<svg version="1.0" xmlns="http://www.w3.org/2000/svg"
 width="550.000000pt" height="550.000000pt" viewBox="0 0 550.000000 550.000000"
 preserveAspectRatio="xMidYMid meet">
<metadata>
Created by potrace 1.11, written by Peter Selinger 2001-2013
</metadata>
<g transform="translate(0.000000,550.000000) scale(0.100000,-0.100000)"
fill="#000000" stroke="none">
<path d="M3030 5490 c0 -5 -3 -9 -7 -8 -5 1 -20 -6 -35 -15 -20 -14 -37 -17
-65 -12 -33 5 -160 16 -203 17 -8 0 -60 -3 -115 -7 -55 -4 -104 -6 -110 -6
-63 5 -130 1 -175 -12 -31 -8 -62 -11 -70 -7 -8 5 -26 2 -43 -7 -16 -8 -27
-11 -24 -5 4 5 0 9 -8 9 -8 0 -12 -4 -9 -9 3 -4 -2 -10 -10 -13 -9 -3 -24 -8
-33 -12 -10 -3 -24 -5 -32 -4 -7 1 -10 -2 -6 -9 4 -7 0 -10 -11 -8 -12 2 -18
-2 -16 -11 2 -11 0 -12 -11 -2 -12 9 -16 8 -21 -6 -6 -13 -9 -14 -15 -4 -6 10
-11 9 -24 -3 -11 -12 -17 -13 -20 -3 -3 6 -6 2 -6 -10 -1 -13 -6 -23 -12 -23
-5 0 -7 4 -4 10 3 6 -1 7 -9 4 -9 -3 -16 -11 -16 -17 0 -6 -3 -8 -6 -4 -4 3
-14 -2 -23 -11 -9 -10 -11 -11 -6 -3 9 12 7 12 -13 2 -12 -7 -20 -16 -17 -21
3 -5 0 -12 -6 -16 -8 -4 -9 -3 -5 4 4 7 3 12 -3 12 -5 0 -13 -9 -16 -21 -5
-16 -10 -18 -21 -8 -11 9 -14 9 -14 0 0 -7 -8 -11 -17 -9 -13 2 -18 -3 -17
-20 1 -18 -1 -20 -12 -11 -10 8 -14 8 -14 0 0 -6 -6 -11 -14 -11 -7 0 -16 -10
-19 -21 -4 -14 -11 -20 -21 -16 -8 3 -18 2 -21 -3 -4 -6 -1 -10 6 -10 8 0 8
-4 -1 -15 -7 -8 -19 -15 -27 -15 -8 0 -11 -5 -8 -10 4 -6 1 -9 -6 -8 -7 2 -13
-1 -14 -7 0 -5 -4 -16 -9 -23 -6 -10 -11 -10 -22 -1 -9 7 -14 8 -13 3 3 -19
-1 -34 -12 -34 -5 0 -8 4 -5 8 3 5 -1 9 -8 9 -8 0 -12 -6 -9 -13 2 -6 -1 -15
-8 -20 -8 -5 -10 -3 -4 6 5 9 4 11 -4 6 -9 -6 -9 -11 1 -24 10 -12 10 -14 1
-8 -8 4 -13 2 -13 -4 0 -6 -4 -8 -10 -5 -5 3 -10 -1 -10 -9 0 -9 -7 -13 -20
-11 -17 3 -18 1 -11 -14 7 -13 6 -18 -4 -18 -8 0 -11 5 -8 11 4 6 -1 5 -10 -3
-9 -7 -14 -17 -11 -22 3 -5 0 -9 -5 -9 -6 0 -11 -8 -11 -17 0 -15 -2 -16 -10
-3 -7 11 -10 11 -10 2 0 -7 -5 -10 -11 -6 -8 4 -8 0 0 -15 9 -17 9 -21 -1 -19
-7 2 -12 -5 -12 -14 1 -10 -2 -15 -7 -12 -5 3 -9 -1 -9 -9 0 -8 -7 -20 -15
-27 -11 -9 -15 -9 -15 -1 0 7 -4 10 -10 6 -5 -3 -6 -13 -3 -21 4 -10 -2 -17
-16 -21 -11 -3 -21 -12 -21 -19 0 -8 -5 -14 -11 -14 -8 0 -7 -6 2 -17 7 -10 9
-15 5 -11 -5 4 -16 2 -24 -5 -13 -9 -14 -9 -8 1 4 6 2 12 -3 12 -6 0 -11 -9
-11 -19 0 -11 -5 -23 -11 -27 -6 -3 -9 -17 -6 -29 3 -17 -1 -25 -15 -28 -11
-3 -21 -18 -24 -36 -4 -17 -12 -31 -18 -31 -6 0 -4 -4 4 -10 12 -8 12 -10 -3
-16 -9 -3 -15 -10 -12 -14 7 -11 -5 -40 -17 -40 -5 0 -6 5 -2 12 4 7 3 8 -5 4
-6 -4 -8 -12 -4 -19 11 -19 10 -57 -2 -47 -7 6 -11 0 -10 -18 0 -15 -5 -32
-11 -39 -6 -6 -10 -27 -9 -47 1 -19 -2 -33 -6 -31 -4 3 -9 -2 -13 -10 -3 -8 0
-15 7 -15 7 0 4 -5 -6 -11 -9 -6 -15 -14 -12 -20 4 -5 0 -9 -7 -9 -9 0 -9 -3
2 -10 12 -7 12 -10 1 -10 -7 0 -11 -6 -7 -15 3 -8 1 -15 -4 -15 -6 0 -6 -10 0
-26 6 -14 6 -23 1 -20 -5 3 -11 -1 -15 -9 -3 -8 0 -15 6 -15 7 0 3 -6 -8 -14
-15 -11 -16 -17 -7 -27 7 -7 9 -19 3 -34 -5 -13 -6 -26 -3 -29 3 -3 0 -12 -6
-20 -7 -8 -10 -19 -8 -24 3 -4 2 -14 -3 -22 -5 -9 -5 -19 2 -27 6 -8 7 -13 1
-13 -7 0 -8 -15 -3 -40 4 -22 4 -40 1 -40 -4 0 -6 -16 -6 -35 1 -19 -2 -35 -7
-35 -5 0 -7 -4 -3 -9 3 -5 1 -12 -5 -16 -7 -4 -7 -12 0 -26 8 -14 7 -19 -1
-19 -9 0 -9 -3 0 -14 9 -10 9 -16 1 -21 -8 -5 -7 -11 2 -22 7 -9 11 -19 10
-22 -19 -32 -22 -41 -12 -41 8 0 8 -6 0 -20 -8 -14 -8 -20 0 -20 8 0 8 -6 0
-20 -8 -14 -8 -20 0 -20 8 0 8 -6 0 -20 -7 -13 -7 -20 -1 -20 6 0 8 -7 5 -15
-4 -8 -9 -13 -13 -11 -3 2 -7 -17 -9 -43 -4 -73 -12 -115 -24 -122 -6 -4 -8
-14 -5 -23 4 -11 1 -16 -11 -17 -9 0 -12 -3 -5 -5 8 -4 8 -12 -3 -32 -7 -14
-21 -59 -30 -99 -10 -40 -21 -73 -26 -73 -5 0 -4 -9 2 -20 9 -17 8 -19 -7 -13
-16 6 -16 4 -5 -9 11 -14 11 -16 -2 -14 -25 3 -30 14 -15 33 9 11 10 14 2 9
-7 -4 -13 -2 -13 3 0 6 5 11 11 11 5 0 7 5 4 10 -3 6 0 10 7 10 8 0 9 3 3 8
-14 10 -18 35 -4 26 8 -5 10 1 7 20 -3 14 -2 26 1 26 14 0 28 49 18 59 -8 8
-8 11 0 11 6 0 14 7 17 16 3 8 2 13 -3 10 -5 -4 -7 3 -4 14 3 11 10 17 15 14
6 -4 5 3 -1 15 -8 14 -8 21 -1 21 5 0 10 9 10 20 0 11 5 20 10 20 7 0 7 6 0
20 -9 16 -8 20 5 20 13 0 14 4 5 20 -8 14 -8 20 0 20 8 0 8 6 0 20 -8 15 -8
20 1 20 16 0 2 13 -17 16 -8 1 -22 -10 -32 -24 -9 -15 -21 -30 -26 -33 -5 -4
-6 -16 -3 -28 3 -14 1 -19 -6 -14 -6 4 -8 0 -4 -10 3 -10 2 -17 -3 -17 -6 0
-10 -6 -10 -14 0 -8 -5 -18 -12 -22 -8 -5 -9 -2 -5 9 9 24 0 21 -14 -4 -7 -13
-7 -19 -1 -15 6 3 13 2 17 -4 3 -5 -1 -10 -9 -10 -14 0 -17 -7 -16 -35 0 -3
-6 -18 -13 -33 -8 -15 -12 -33 -9 -41 3 -8 0 -11 -7 -7 -7 5 -13 -4 -17 -24
-4 -17 -11 -33 -16 -36 -5 -3 -4 -12 3 -20 10 -12 9 -13 -7 -7 -17 6 -18 5 -4
-12 14 -17 14 -18 -9 -6 -13 7 -21 8 -17 3 10 -17 -4 -41 -21 -35 -11 4 -14 2
-9 -5 4 -7 2 -12 -4 -12 -6 0 -8 -4 -5 -10 3 -5 1 -10 -4 -10 -6 0 -10 -3 -10
-7 4 -22 -2 -43 -10 -39 -5 4 -8 -5 -7 -19 2 -13 0 -22 -4 -20 -4 3 -8 -7 -9
-20 -4 -61 -6 -65 -18 -60 -11 3 -11 0 -3 -15 9 -16 8 -22 -5 -26 -9 -4 -13
-15 -11 -30 3 -13 0 -24 -5 -24 -6 0 -6 -8 1 -20 6 -11 7 -20 3 -20 -4 0 -6
-36 -3 -80 3 -44 1 -80 -3 -80 -4 0 -3 -9 3 -20 8 -14 8 -20 0 -20 -6 0 -9 -4
-6 -8 3 -5 6 -46 7 -93 1 -46 7 -90 13 -98 8 -11 8 -13 -1 -7 -9 5 -11 2 -7
-8 3 -9 11 -16 16 -16 7 0 7 -4 0 -13 -7 -8 -7 -18 -2 -27 5 -9 5 -19 -1 -26
-7 -8 -6 -14 1 -19 8 -5 8 -10 0 -20 -8 -10 -8 -15 0 -20 8 -5 8 -10 0 -20 -8
-10 -8 -15 0 -20 8 -5 8 -10 0 -20 -8 -9 -7 -14 5 -18 8 -4 12 -12 10 -20 -3
-7 1 -29 9 -49 8 -19 12 -38 9 -42 -4 -3 0 -6 7 -6 11 0 11 -3 2 -12 -9 -9 -7
-17 10 -35 21 -22 21 -24 3 -18 -19 6 -19 6 -1 -9 10 -8 16 -22 13 -31 -4 -9
-1 -15 9 -15 8 0 12 -5 9 -10 -3 -5 -2 -10 4 -10 6 0 8 -7 5 -15 -4 -8 1 -17
10 -21 9 -3 13 -10 10 -15 -3 -5 -2 -15 3 -21 4 -7 8 -19 9 -27 2 -7 13 -25
26 -39 13 -15 16 -21 6 -14 -13 11 -18 11 -24 0 -4 -7 -4 -10 1 -6 11 11 35
-18 35 -42 0 -14 4 -19 12 -14 8 5 9 2 5 -10 -4 -9 -3 -15 1 -12 4 2 14 1 22
-5 13 -7 13 -9 0 -9 -9 -1 -6 -6 10 -16 15 -9 18 -13 6 -9 -17 5 -17 4 -5 -12
8 -10 20 -24 27 -31 7 -8 9 -19 5 -25 -3 -7 -3 -9 2 -5 4 4 14 1 21 -7 17 -17
18 -29 2 -19 -7 4 -8 3 -4 -4 4 -6 13 -9 22 -5 9 3 14 0 12 -8 -2 -8 3 -13 11
-11 12 3 12 0 1 -13 -11 -13 -10 -15 4 -9 12 5 15 2 10 -10 -4 -11 1 -19 17
-25 13 -5 21 -10 17 -10 -17 -2 63 -111 82 -111 6 0 8 -5 5 -10 -6 -9 8 -15
29 -11 5 1 3 -6 -5 -15 -9 -12 -9 -15 -1 -10 7 4 12 2 12 -4 0 -6 5 -8 10 -5
9 6 14 -8 11 -27 0 -5 5 -7 12 -5 6 1 11 -4 9 -11 -1 -8 2 -11 8 -7 5 3 10 -2
10 -12 0 -15 2 -16 10 -3 8 13 10 12 10 -3 0 -11 4 -15 12 -11 8 5 9 2 5 -10
-4 -9 -3 -15 2 -11 6 3 21 -14 36 -37 24 -40 25 -41 21 -13 -6 30 -6 30 6 -3
11 -33 31 -46 22 -14 -2 9 1 7 7 -5 11 -21 44 -40 61 -35 5 1 7 -3 5 -9 -3
-18 50 -22 57 -4 3 8 1 15 -4 15 -6 0 -6 9 -1 23 6 16 2 34 -14 64 -13 23 -26
39 -29 36 -3 -4 -6 -1 -6 5 0 7 -13 26 -30 44 -16 17 -30 36 -30 43 0 7 -8 19
-17 26 -10 8 -14 9 -10 2 4 -6 2 -15 -4 -19 -8 -5 -10 1 -7 19 4 19 1 24 -9
20 -8 -3 -13 -2 -12 3 4 21 -2 35 -11 29 -5 -3 -10 3 -10 14 0 12 -4 21 -10
21 -5 0 -10 7 -10 15 0 8 -8 15 -17 16 -15 0 -15 2 2 9 15 6 16 9 4 9 -8 1
-26 13 -40 29 l-24 27 29 -25 29 -25 -19 27 c-10 15 -26 29 -35 31 -12 3 -15
12 -12 31 3 15 2 26 -3 25 -20 -3 -28 2 -16 10 10 6 9 11 -4 22 -15 12 -17 12
-9 0 5 -10 4 -12 -3 -7 -9 5 -9 13 -2 26 9 16 8 18 -6 13 -11 -4 -15 -2 -11 4
4 6 0 18 -8 26 -11 12 -12 17 -2 20 7 3 5 6 -5 6 -11 1 -15 6 -12 16 4 8 1 15
-6 15 -6 0 -8 5 -5 10 4 6 1 18 -7 27 -9 12 -9 15 -1 9 9 -5 11 -2 7 8 -3 9
-10 16 -14 16 -4 0 -11 7 -14 16 -3 8 -2 12 4 9 5 -3 1 13 -10 37 -10 23 -16
46 -14 50 3 4 1 8 -4 8 -6 0 -8 9 -5 20 3 12 0 20 -7 20 -7 0 -10 7 -6 15 3 8
1 15 -4 15 -5 0 -7 7 -4 15 4 8 11 12 16 9 6 -4 5 3 -1 15 -9 17 -9 20 2 15
17 -6 23 9 23 54 -1 17 3 32 8 32 6 0 5 5 -2 12 -8 8 -8 17 -1 30 5 10 7 23 4
28 -3 6 -1 10 5 10 6 0 8 4 5 10 -3 6 1 7 9 4 9 -4 18 1 22 10 3 9 10 16 16
16 5 0 6 -5 2 -12 -4 -7 -3 -8 5 -4 9 6 9 11 -1 24 -8 10 -9 13 -1 9 6 -4 14
-3 18 3 4 6 11 8 16 5 5 -4 9 -2 9 3 0 10 30 9 48 -2 6 -4 12 -17 12 -29 0
-18 2 -19 10 -7 9 13 10 13 11 0 1 -8 0 -19 -1 -25 -1 -5 1 -7 5 -3 12 11 54
-36 43 -49 -6 -7 -5 -14 3 -19 8 -5 9 -3 4 6 -5 8 -4 11 3 6 6 -4 9 -13 6 -20
-3 -8 0 -17 6 -21 8 -5 8 -11 -1 -21 -10 -12 -10 -15 1 -12 9 2 14 -14 17 -57
2 -33 5 -68 7 -78 2 -9 0 -17 -5 -17 -6 0 -5 -8 1 -20 7 -13 7 -20 1 -20 -6 0
-8 -6 -6 -12 2 -7 7 -33 9 -58 3 -25 10 -46 16 -48 7 -3 6 -9 -2 -20 -10 -12
-10 -14 0 -8 7 4 12 1 12 -9 0 -10 5 -13 12 -9 8 5 9 2 5 -9 -4 -11 -1 -17 8
-17 9 0 15 -10 16 -22 0 -22 1 -22 9 -3 8 18 9 18 9 2 1 -10 9 -30 18 -45 17
-27 17 -27 -2 -12 -17 12 -17 11 2 -10 17 -20 19 -29 11 -44 -8 -13 -7 -20 2
-26 7 -4 10 -15 7 -23 -3 -9 1 -18 10 -21 12 -5 13 -9 3 -21 -7 -8 -8 -15 -3
-15 5 0 10 -7 11 -15 1 -8 3 -22 4 -30 1 -8 5 -15 10 -15 5 0 7 -4 4 -9 -4 -5
0 -12 6 -14 10 -4 10 -6 0 -6 -10 -1 -9 -5 3 -17 12 -13 13 -19 4 -30 -9 -12
-9 -13 3 -9 11 5 14 -1 13 -24 -1 -17 2 -28 6 -26 4 3 10 -2 13 -11 4 -10 2
-13 -7 -9 -6 4 -4 0 5 -8 10 -8 19 -28 21 -46 2 -17 7 -34 12 -39 5 -4 4 0 0
8 -8 13 -7 13 9 0 17 -13 17 -14 -1 -21 -16 -6 -16 -7 -1 -14 9 -3 19 -13 22
-21 3 -9 1 -12 -4 -9 -6 3 -10 1 -10 -4 0 -6 7 -11 16 -11 8 0 13 -4 9 -9 -3
-6 4 -15 15 -21 11 -6 19 -14 18 -18 -1 -4 2 -15 7 -26 5 -12 3 -21 -6 -27 -8
-5 -9 -9 -3 -9 5 0 16 6 23 12 10 11 11 10 6 -4 -4 -11 -2 -18 5 -18 6 0 8 -5
4 -11 -3 -6 4 -25 17 -42 13 -19 16 -26 6 -18 -27 22 -20 4 11 -25 15 -15 21
-23 15 -20 -9 5 -11 2 -7 -8 3 -9 10 -16 15 -16 5 0 9 -5 9 -11 0 -5 -6 -7
-12 -4 -7 4 0 -5 15 -19 16 -14 25 -31 22 -36 -3 -6 -2 -10 4 -10 6 0 15 -10
22 -21 7 -15 8 -19 0 -15 -7 5 -9 1 -5 -8 3 -9 10 -16 15 -16 5 0 9 -8 9 -17
1 -10 8 -29 16 -43 8 -14 13 -17 10 -8 -3 10 0 20 6 24 6 4 8 3 4 -4 -3 -6 0
-17 8 -25 8 -8 12 -17 9 -21 -4 -3 -1 -6 7 -6 10 0 10 -3 1 -14 -10 -12 -8
-13 9 -9 16 4 19 2 14 -13 -4 -11 -3 -16 1 -12 5 5 16 -6 26 -22 11 -17 27
-30 38 -30 10 0 22 -7 25 -16 3 -9 11 -12 18 -8 7 5 9 2 5 -8 -8 -22 3 -30 21
-15 13 9 14 9 8 0 -4 -8 -1 -13 9 -13 8 0 20 -10 25 -22 5 -13 9 -17 9 -10 1
6 6 12 12 12 5 0 7 -4 4 -10 -3 -5 -2 -10 4 -10 5 0 17 -7 25 -16 11 -11 16
-12 16 -3 0 7 6 5 13 -6 8 -10 19 -15 25 -11 7 4 12 2 12 -4 0 -6 5 -8 10 -5
6 3 10 1 10 -5 0 -6 4 -9 9 -6 5 4 12 0 14 -6 4 -10 6 -10 6 -1 1 7 8 10 16 7
8 -4 13 -9 11 -13 -3 -4 5 -8 16 -8 11 -1 30 -10 41 -20 11 -10 17 -12 13 -6
-5 9 -2 11 8 7 9 -3 14 -10 11 -14 -3 -5 8 -5 25 0 19 5 28 5 25 -1 -6 -9 12
-13 45 -11 8 0 18 -5 22 -13 5 -7 16 -11 27 -8 10 3 22 0 25 -6 5 -8 13 -8 27
-1 11 6 19 7 19 1 0 -5 7 -12 16 -15 10 -4 13 -2 8 7 -6 9 -5 9 8 0 8 -7 18
-10 21 -6 4 3 7 1 7 -5 0 -6 9 -9 20 -7 11 2 23 -1 26 -7 5 -7 2 -8 -7 -4 -8
4 -5 0 5 -8 16 -13 48 -16 166 -16 81 0 150 3 153 7 4 3 1 13 -6 21 -8 11 -8
14 0 9 15 -9 44 3 37 15 -4 6 2 6 14 -1 16 -9 19 -7 18 7 0 9 5 16 13 14 7 -1
19 3 27 9 11 9 14 8 14 -2 0 -9 3 -10 8 -4 8 12 27 13 37 3 4 -4 16 -3 26 2 9
6 26 7 36 4 13 -4 14 -3 5 4 -11 7 -9 10 6 14 11 3 25 1 31 -5 8 -8 11 -7 11
2 0 8 7 11 20 8 10 -3 19 -2 18 2 -2 18 3 22 16 12 11 -9 16 -9 22 0 5 8 3 10
-7 4 -12 -7 -12 -5 -1 6 11 11 14 12 21 1 7 -11 10 -10 15 3 3 9 10 13 16 10
5 -3 10 -1 10 6 0 8 6 6 18 -4 15 -14 19 -15 19 -2 0 8 -5 11 -10 8 -6 -3 -7
-1 -3 5 4 7 16 12 27 12 14 0 18 4 13 13 -5 7 0 6 11 -3 17 -14 18 -13 12 3
-7 20 3 22 22 5 8 -9 11 -9 9 -1 -2 6 0 10 3 10 3 -1 14 6 23 16 10 10 21 15
24 12 4 -3 0 -10 -8 -15 -8 -6 -10 -10 -4 -10 16 0 35 25 26 34 -4 4 -2 6 3 5
6 -2 21 3 34 10 19 11 22 11 15 -1 -6 -10 -5 -11 8 -1 8 7 19 9 23 5 5 -4 5 1
2 10 -7 20 26 43 46 32 9 -6 9 -4 -1 8 -10 13 -9 15 10 14 13 0 22 4 21 11 -1
6 5 14 13 17 12 5 15 2 10 -11 -6 -15 -4 -15 12 2 11 11 17 24 14 29 -3 5 2 7
11 3 10 -3 17 -2 17 4 0 6 4 8 9 4 5 -3 13 0 17 6 5 8 3 9 -6 4 -8 -5 -11 -3
-8 6 3 8 11 13 18 11 10 -2 10 1 -1 14 -13 16 -12 16 11 4 23 -12 24 -12 11 3
-11 14 -11 17 0 18 8 1 18 1 22 0 4 -1 3 8 -4 20 -10 19 -9 21 4 16 11 -4 14
-2 10 9 -3 10 0 12 10 8 17 -6 18 11 3 35 -6 10 -5 12 2 7 7 -4 17 -4 23 0 8
4 7 9 -2 15 -11 7 -11 9 -1 9 8 0 10 5 6 12 -5 8 -2 9 10 5 13 -5 15 -2 12 19
-4 23 -3 24 12 13 9 -8 14 -10 10 -5 -4 5 0 15 8 23 8 8 11 20 7 26 -4 7 2 5
12 -3 11 -9 16 -10 11 -2 -4 6 -2 12 3 12 6 0 11 5 11 11 0 5 -6 7 -12 3 -7
-4 -3 3 10 15 12 12 22 26 22 31 0 6 5 10 11 10 8 0 7 -6 -2 -17 -13 -16 -12
-17 3 -4 10 7 15 17 12 22 -3 5 0 17 5 26 6 10 11 14 11 8 0 -11 20 16 20 28
0 5 -6 5 -12 2 -7 -4 -4 1 6 9 11 9 23 16 27 16 4 0 6 9 4 21 -3 14 0 19 8 16
8 -3 14 4 15 16 0 12 6 23 12 25 5 2 7 9 3 15 -4 7 1 6 10 -2 10 -8 20 -11 24
-7 3 3 2 6 -4 6 -6 0 -14 7 -17 16 -5 14 -4 15 9 4 13 -11 14 -10 10 3 -8 18
11 32 21 16 5 -8 3 -9 -6 -4 -8 5 -11 4 -6 -3 4 -6 14 -8 23 -5 11 4 13 8 5
11 -16 5 -15 20 2 38 18 17 30 18 20 1 -4 -6 2 -3 14 7 12 11 20 22 17 25 -4
3 -10 -1 -16 -9 -7 -11 -8 -9 -6 9 3 16 11 25 26 28 15 2 20 -1 15 -9 -4 -7
-3 -8 5 -4 6 4 9 12 6 17 -6 8 8 13 27 10 5 0 7 5 5 12 -1 6 4 11 11 9 8 -1
11 1 8 6 -8 13 9 33 31 35 11 0 20 8 19 17 -1 8 4 14 11 13 7 -2 10 3 7 11 -3
8 7 24 25 37 17 12 27 27 24 33 -4 6 1 5 10 -3 15 -12 17 -12 11 4 -5 12 -4
16 3 12 6 -4 10 1 9 11 0 9 5 16 12 14 7 -1 15 5 18 13 3 8 10 12 15 9 5 -3 6
2 3 10 -6 15 6 21 30 17 5 -1 6 5 3 14 -4 8 -1 15 5 15 7 0 7 4 -1 14 -9 10
-8 16 4 26 8 7 15 21 15 32 0 10 5 16 10 13 6 -4 7 -11 4 -17 -4 -7 -2 -8 4
-4 6 4 9 13 6 20 -3 7 3 19 13 27 17 13 17 13 3 -6 -14 -18 -14 -19 2 -7 10 8
14 20 11 29 -5 12 -3 14 7 8 9 -6 11 -4 6 4 -5 7 0 19 10 27 11 9 14 13 7 10
-8 -5 -8 0 0 18 7 13 15 22 19 20 5 -3 9 0 9 5 1 6 3 16 4 21 1 6 3 18 4 28 1
10 4 13 9 6 4 -6 14 -3 26 10 17 17 17 19 2 13 -12 -5 -16 -3 -14 5 3 7 10 13
16 13 5 0 14 4 19 9 5 5 3 6 -4 2 -19 -11 -16 11 5 32 9 10 18 25 20 33 2 7 7
16 12 19 4 3 15 22 23 42 9 21 21 38 27 38 6 0 9 4 5 9 -3 5 -1 12 5 16 6 4 7
11 4 17 -4 7 -2 8 4 4 7 -4 12 -2 12 3 0 6 8 11 18 11 10 0 13 3 7 8 -13 9
-13 38 0 35 6 -1 11 8 11 20 2 24 7 43 19 70 4 10 9 28 10 40 4 37 5 38 14 32
6 -3 8 6 5 20 -2 14 0 25 6 25 7 0 8 5 3 13 -10 15 -11 97 -1 91 4 -3 6 8 5
23 -1 16 3 27 9 26 6 -1 10 11 9 28 -1 16 3 29 8 29 6 0 7 3 4 7 -4 3 -2 12 4
19 7 8 7 14 -1 19 -6 4 -7 12 -1 24 6 10 6 23 1 31 -5 9 -5 19 2 27 7 9 7 13
0 13 -10 0 -10 7 -2 45 1 6 1 13 0 18 -6 20 -4 87 3 87 5 0 5 6 1 12 -12 19
-12 48 0 48 7 0 7 3 1 8 -5 4 -10 14 -10 22 0 8 5 18 10 22 6 5 6 8 -2 8 -12
0 -12 17 0 38 5 6 4 12 0 12 -5 0 -9 14 -8 30 0 17 4 30 10 30 5 0 4 4 -3 9
-8 4 -13 10 -12 12 1 2 -1 35 -5 72 -5 44 -12 71 -22 74 -11 4 -10 8 4 20 10
8 12 12 5 8 -9 -5 -11 0 -8 18 3 17 -1 27 -11 31 -9 4 -13 14 -10 26 3 11 1
18 -4 14 -5 -3 -9 2 -9 11 0 9 -12 33 -27 53 -16 20 -20 31 -10 23 15 -12 17
-12 11 3 -3 9 -12 16 -19 16 -7 0 -15 7 -18 14 -4 11 -1 14 11 10 9 -2 7 1 -6
8 -15 7 -22 18 -19 29 3 10 -1 20 -9 23 -8 3 -14 12 -14 21 0 8 -4 15 -10 15
-5 0 -10 8 -10 19 0 10 -11 30 -25 45 -13 14 -21 26 -18 26 3 0 -5 9 -18 21
-13 12 -23 25 -21 31 1 5 -7 4 -19 -2 -19 -11 -20 -10 -9 9 9 17 8 21 -4 21
-9 0 -20 10 -26 23 -11 21 -10 21 4 3 9 -11 16 -16 16 -10 -1 11 -30 51 -30
40 0 -5 -7 -3 -15 4 -13 11 -14 10 -9 -5 6 -14 4 -16 -6 -10 -10 6 -12 4 -7
-8 4 -10 2 -17 -4 -17 -6 0 -9 -7 -5 -15 3 -8 -1 -20 -8 -27 -18 -19 -19 -30
-4 -39 10 -7 9 -9 -5 -9 -10 0 -16 -4 -13 -8 2 -4 1 -14 -4 -22 -5 -9 -5 -19
2 -27 6 -7 7 -13 3 -13 -5 0 0 -9 9 -19 13 -14 14 -21 5 -27 -7 -4 -10 -3 -5
4 3 6 2 13 -3 16 -16 10 -6 -22 15 -45 11 -14 13 -19 4 -14 -13 8 -13 7 -1 -8
15 -19 19 -76 6 -96 -5 -10 -4 -12 3 -7 8 4 13 -1 14 -13 0 -12 1 -27 2 -33 1
-7 6 -16 11 -20 6 -5 5 -8 -4 -8 -10 0 -11 -3 -2 -14 9 -11 8 -15 -6 -20 -10
-4 -19 -2 -21 3 -2 6 -9 8 -14 5 -7 -4 -8 -2 -4 4 4 6 2 21 -4 32 -8 15 -8 20
2 20 8 0 7 4 -4 10 -11 7 -15 19 -12 35 3 16 -2 27 -13 34 -17 10 -16 10 2 11
18 1 19 1 3 11 -10 5 -18 17 -18 24 0 8 -4 15 -10 15 -5 0 -10 5 -10 11 0 5 5
7 12 3 7 -4 8 -3 4 4 -4 6 -14 8 -24 5 -15 -6 -16 -5 -2 12 8 10 10 16 3 12
-6 -4 -14 -3 -18 3 -3 5 0 10 7 10 9 0 9 3 -2 10 -17 11 -20 30 -7 48 6 7 6
12 0 12 -5 0 -9 9 -10 20 -1 11 2 18 8 15 5 -4 4 6 -2 22 -11 31 -11 33 1 48
5 6 5 17 0 25 -12 18 -13 33 -2 27 4 -3 7 5 7 18 0 13 -3 21 -6 19 -12 -7 -19
28 -9 41 8 10 8 15 -1 21 -8 5 -10 3 -4 -7 5 -8 4 -10 0 -6 -5 4 -10 29 -11
55 0 26 -6 58 -12 73 -6 15 -7 31 -1 41 5 9 6 19 1 22 -4 2 -7 30 -5 60 2 47
-1 56 -15 57 -15 0 -15 1 2 8 16 6 16 9 5 22 -17 17 -21 49 -6 49 8 0 8 3 0
11 -6 6 -9 18 -6 27 4 10 2 13 -5 8 -7 -4 -10 7 -10 36 2 56 -48 226 -76 257
-11 13 -15 21 -8 16 11 -6 12 -3 3 13 -6 11 -16 23 -23 25 -10 4 -10 6 0 6 14
1 16 27 2 36 -6 4 -7 -1 -4 -12 5 -14 4 -15 -4 -4 -6 8 -9 23 -7 33 2 10 -1
18 -7 18 -5 0 -8 7 -4 15 3 8 1 15 -5 15 -6 0 -8 4 -4 9 3 5 0 13 -6 16 -5 4
-8 13 -5 21 3 7 1 16 -4 19 -5 3 -6 13 -3 22 4 10 2 14 -4 10 -6 -4 -14 0 -17
9 -3 8 -2 13 2 10 5 -3 9 1 9 8 0 8 -6 12 -13 9 -7 -2 -17 10 -23 30 -6 18
-21 43 -32 55 -13 14 -15 22 -7 22 7 1 2 7 -12 15 -14 8 -19 14 -12 15 6 0 12
4 12 9 0 6 -9 8 -21 6 -17 -3 -19 -2 -9 10 10 11 7 15 -14 21 -14 3 -24 10
-21 14 3 5 -4 11 -15 15 -11 4 -17 11 -14 17 4 6 10 5 15 -3 5 -8 9 -9 9 -3 0
12 -61 60 -72 56 -5 -1 -7 1 -7 6 4 21 -2 32 -13 26 -9 -5 -8 -2 1 9 12 15 12
17 -3 11 -11 -4 -16 -1 -16 12 0 16 -2 17 -11 4 -9 -12 -10 -11 -6 7 3 15 1
20 -9 16 -8 -3 -14 0 -14 7 0 6 -4 8 -10 5 -5 -3 -10 1 -10 9 0 8 -9 18 -20
21 -11 4 -20 15 -20 26 0 13 -4 18 -12 13 -8 -5 -9 -2 -4 11 6 16 4 16 -11 4
-11 -9 -14 -10 -9 -1 4 7 2 12 -7 12 -8 0 -21 8 -28 18 -11 14 -11 15 1 5 8
-7 19 -13 24 -13 6 0 0 7 -12 16 -13 9 -26 13 -29 10 -3 -3 -15 0 -27 6 -11 7
-25 13 -31 13 -5 0 -9 8 -9 17 1 10 -4 14 -12 11 -9 -3 -14 2 -14 13 0 16 -2
17 -10 4 -8 -13 -10 -12 -10 4 0 16 -2 17 -17 5 -9 -8 -14 -9 -10 -3 6 11 -19
29 -35 26 -5 -1 -8 8 -9 20 0 22 -1 22 -9 3 -5 -11 -9 -14 -9 -7 -1 6 -8 12
-16 12 -8 0 -15 5 -15 11 0 5 -4 8 -9 5 -4 -3 -19 3 -31 14 -15 13 -28 17 -39
11 -16 -8 -87 20 -76 30 8 8 -28 4 -43 -4 -8 -6 -10 -3 -6 7 4 11 0 14 -15 11
-12 -2 -21 0 -21 6 0 11 -22 7 -32 -6 -5 -6 -8 -3 -8 7 0 11 -6 16 -20 13 -11
-2 -20 0 -20 6 0 5 -5 9 -11 9 -5 0 -7 -6 -3 -12 6 -10 5 -10 -7 -1 -8 6 -23
13 -34 15 -11 1 -26 9 -33 16 -16 14 -92 16 -92 2z m1513 -3233 c-2 -4 -1 -7
4 -6 30 5 33 -1 33 -63 1 -141 2 -173 6 -180 3 -4 1 -8 -5 -8 -6 0 -6 -11 -1
-30 5 -18 5 -32 -1 -36 -6 -3 -8 -12 -5 -20 3 -8 0 -14 -7 -14 -8 0 -6 -4 3
-10 8 -5 10 -10 4 -10 -7 0 -15 -7 -18 -16 -4 -9 -2 -13 5 -8 6 3 4 -4 -4 -17
-8 -13 -14 -34 -12 -47 1 -15 -3 -21 -11 -18 -8 3 -11 -2 -9 -15 2 -11 -2 -22
-10 -26 -8 -3 -15 -9 -15 -15 0 -5 4 -7 9 -3 5 3 13 0 17 -7 4 -7 4 -10 -1 -6
-13 12 -35 -12 -28 -29 4 -11 2 -14 -5 -9 -8 5 -12 -1 -12 -16 0 -19 -2 -20
-11 -8 -8 12 -10 12 -8 -5 3 -35 -1 -46 -12 -39 -7 4 -6 -2 2 -17 11 -22 11
-23 -4 -10 -15 12 -17 11 -17 -7 0 -12 -5 -24 -11 -28 -6 -3 -8 -15 -6 -26 3
-11 3 -17 0 -14 -3 3 -12 -2 -20 -12 -11 -13 -16 -14 -20 -4 -4 10 -8 10 -21
0 -13 -11 -14 -11 -8 0 4 7 2 19 -4 27 -7 9 -8 15 -3 15 7 0 8 15 3 40 -5 26
-4 40 3 40 7 0 7 4 -1 12 -7 7 -8 17 -1 30 7 12 6 18 -1 18 -6 0 -8 5 -5 11 4
5 8 22 10 37 1 14 8 28 15 30 9 3 9 7 -1 14 -10 6 -7 7 9 3 19 -6 23 -3 20 12
-2 10 2 17 8 16 7 -1 18 18 26 42 8 24 12 42 8 40 -4 -3 -2 12 5 33 8 20 9 38
5 40 -5 2 -5 13 0 26 4 12 4 29 -1 38 -6 11 -4 20 6 28 11 9 12 16 5 25 -8 10
-7 17 3 26 10 9 12 23 7 46 -5 21 -4 33 2 33 7 0 7 4 0 13 -6 7 -7 19 -3 26 5
7 5 28 1 46 -7 31 -6 33 16 30 13 -1 24 1 24 5 0 5 11 3 24 -3 13 -7 22 -15
19 -20z m-3559 -1043 c5 -14 4 -15 -9 -4 -17 14 -19 20 -6 20 5 0 12 -7 15
-16z m310 -160 c7 -19 2 -18 -19 6 -16 17 -16 20 -3 15 9 -4 19 -13 22 -21z
m2596 -414 c0 -5 -5 -10 -11 -10 -5 0 -7 5 -4 10 3 6 8 10 11 10 2 0 4 -4 4
-10z m-2233 -22 c-3 -8 -6 -5 -6 6 -1 11 2 17 5 13 3 -3 4 -12 1 -19z m181
-283 c-3 -3 -9 2 -12 12 -6 14 -5 15 5 6 7 -7 10 -15 7 -18z"/>
<path d="M1580 5079 c0 -5 5 -7 10 -4 6 3 10 8 10 11 0 2 -4 4 -10 4 -5 0 -10
-5 -10 -11z"/>
<path d="M3990 5024 c0 -20 27 -37 36 -23 4 7 3 9 -4 5 -6 -3 -15 2 -21 11 -6
10 -11 13 -11 7z"/>
<path d="M1076 2101 c-3 -5 1 -11 9 -14 9 -4 12 -1 8 9 -6 16 -10 17 -17 5z"/>
</g>
</svg>
